<svg xmlns="http://www.w3.org/2000/svg" xmlns:xlink="http://www.w3.org/1999/xlink" width="400.4141" height="789.5972" viewBox="0 0 400.4141 789.5972"><defs><linearGradient id="a" x1="-66.9877" y1="394.7986" x2="504.3133" y2="394.7986" gradientUnits="userSpaceOnUse"><stop offset="0" stop-color="#fff" stop-opacity="0"/><stop offset="0.0852" stop-color="#ebede7" stop-opacity="0.1259"/><stop offset="0.3698" stop-color="#b1b7a0" stop-opacity="0.502"/><stop offset="0.6271" stop-color="#86906c" stop-opacity="0.7745"/><stop offset="0.8459" stop-color="#6c784c" stop-opacity="0.9406"/><stop offset="1" stop-color="#637041"/></linearGradient><linearGradient id="b" x1="-562.8175" y1="9.4548" x2="-84.6135" y2="9.4548" gradientTransform="matrix(0.8089, -0.1467, -0.1467, 0.8874, 386.9011, 296.9679)" gradientUnits="userSpaceOnUse"><stop offset="0" stop-color="#fff" stop-opacity="0"/><stop offset="0.1532" stop-color="#f5f6f3" stop-opacity="0.0656"/><stop offset="0.3817" stop-color="#d8dcd0" stop-opacity="0.2469"/><stop offset="0.6573" stop-color="#aab198" stop-opacity="0.5438"/><stop offset="0.9675" stop-color="#6a774a" stop-opacity="0.9531"/><stop offset="1" stop-color="#637041"/></linearGradient><linearGradient id="c" x1="-66.9877" y1="364.3255" x2="504.3133" y2="364.3255" xlink:href="#a"/><linearGradient id="d" x1="-506.8806" y1="25.0374" x2="-105.1772" y2="25.0374" xlink:href="#b"/><linearGradient id="e" x1="240.9182" y1="497.9744" x2="812.2192" y2="497.9744" xlink:href="#a"/><linearGradient id="f" x1="-66.9877" y1="425.9056" x2="504.3133" y2="425.9056" xlink:href="#a"/><linearGradient id="g" x1="240.918" y1="425.9056" x2="812.219" y2="425.9056" xlink:href="#a"/></defs><g style="isolation:isolate"><polygon points="0 0 0 327.722 120.851 0 0 0" fill="none"/><path d="M326.7949,777.32,243.4766,644.209l-53.47,144.9989q-17.1657.45-34.6645.3778A1136.26,1136.26,0,0,1,0,778.1633v11.4339H400.4141V764.0049C376.603,769.0955,352.0581,773.5864,326.7949,777.32Z" fill="none"/><path d="M190.0068,789.2079l53.47-144.9989-2.5586-4.0878L400.4141,207.6023V0H268.6978L0,728.651v49.5123a1136.26,1136.26,0,0,0,155.3423,11.4224Q172.8413,789.6649,190.0068,789.2079Z" fill="url(#a)" style="mix-blend-mode:lighten"/><polygon points="120.851 0 0 327.722 0 728.638 268.693 0 120.851 0" fill="url(#b)" style="mix-blend-mode:lighten"/><polygon points="268.693 0 0 728.638 0 728.651 268.698 0 268.693 0" fill="url(#c)" style="mix-blend-mode:lighten"/><polygon points="268.693 0 0 728.638 0 728.651 268.698 0 268.693 0" fill="url(#d)" style="mix-blend-mode:lighten"/><path d="M326.7949,777.32c25.2632-3.7337,49.8081-8.2246,73.6192-13.3152V218.6287L243.4766,644.209Z" fill="url(#e)" style="mix-blend-mode:lighten"/><polygon points="243.477 644.209 400.414 218.629 400.414 207.602 240.918 640.121 243.477 644.209" fill="url(#f)" style="mix-blend-mode:lighten"/><polygon points="243.477 644.209 400.414 218.629 400.414 207.602 240.918 640.121 243.477 644.209" fill="url(#g)" style="mix-blend-mode:lighten"/></g></svg>