<svg xmlns="http://www.w3.org/2000/svg" xmlns:xlink="http://www.w3.org/1999/xlink" width="1919.8235" height="1081.3247" viewBox="0 0 1919.8235 1081.3247"><defs><linearGradient id="a" x1="311.7988" y1="540.6624" x2="1939.7843" y2="540.6624" gradientUnits="userSpaceOnUse"><stop offset="0" stop-color="#fff" stop-opacity="0"/><stop offset="0.0852" stop-color="#ebede7" stop-opacity="0.1259"/><stop offset="0.3698" stop-color="#b1b7a0" stop-opacity="0.502"/><stop offset="0.6271" stop-color="#86906c" stop-opacity="0.7745"/><stop offset="0.8459" stop-color="#6c784c" stop-opacity="0.9406"/><stop offset="1" stop-color="#637041"/></linearGradient><linearGradient id="b" x1="-1016.3469" y1="-357.1821" x2="611.6386" y2="-357.1821" gradientTransform="matrix(0.8089, -0.1467, -0.1467, 0.8874, 1004.6127, 771.0956)" gradientUnits="userSpaceOnUse"><stop offset="0" stop-color="#fff" stop-opacity="0"/><stop offset="0.1532" stop-color="#f5f6f3" stop-opacity="0.0656"/><stop offset="0.3817" stop-color="#d8dcd0" stop-opacity="0.2469"/><stop offset="0.6573" stop-color="#aab198" stop-opacity="0.5438"/><stop offset="0.9675" stop-color="#6a774a" stop-opacity="0.9531"/><stop offset="1" stop-color="#637041"/></linearGradient><linearGradient id="c" x1="311.7988" y1="527.3815" x2="1939.7843" y2="527.3815" xlink:href="#a"/><linearGradient id="d" x1="-1016.3469" y1="-312.7941" x2="611.6386" y2="-312.7941" xlink:href="#b"/><linearGradient id="e" x1="1189.2106" y1="532.2583" x2="2817.1961" y2="532.2583" xlink:href="#a"/><linearGradient id="f" x1="311.7988" y1="441.1403" x2="1939.7843" y2="441.1403" xlink:href="#a"/><linearGradient id="g" x1="1189.2107" y1="441.1403" x2="2817.1962" y2="441.1403" xlink:href="#a"/></defs><g style="isolation:isolate"><path d="M1665.8939,1043.9818q132.5514-14.06,253.93-31.8492v-298.98Z" fill="none"/><path d="M193.9165,851.2725,847.3149,0H0V1012.1326c140.0061,20.2878,291.4961,37.7053,453.3682,49.9919l5.6552-7.3678Z" fill="none"/><path d="M1044.1335,1080.7917c135.6109-1.707,265.7056-7.4646,389.7923-16.2751l-237.4241-182.236Z" fill="none"/><path d="M1189.2107,876.6843,1862.1141,0H1268.62L459.0317,1054.7629l-.0083-.0062-5.6552,7.3678c154.813,11.7507,319.1215,18.8085,491.9848,19.1846q49.8644.1083,98.78-.5174l152.3682-198.5111Z" fill="url(#a)" style="mix-blend-mode:lighten"/><polygon points="459.023 1054.757 1268.607 0 847.315 0 193.917 851.272 459.023 1054.757" fill="url(#b)" style="mix-blend-mode:lighten"/><polygon points="459.032 1054.763 1268.62 0 1268.607 0 459.023 1054.757 459.032 1054.763" fill="url(#c)" style="mix-blend-mode:lighten"/><polygon points="459.032 1054.763 1268.62 0 1268.607 0 459.023 1054.757 459.032 1054.763" fill="url(#d)" style="mix-blend-mode:lighten"/><path d="M1919.8235,0h-46.1226L1196.5017,882.2806l237.4241,182.236q119.7825-8.5048,231.9681-20.5348l253.93-330.8291Z" fill="url(#e)" style="mix-blend-mode:lighten"/><polygon points="1196.502 882.281 1873.701 0 1862.114 0 1189.211 876.684 1196.502 882.281" fill="url(#f)" style="mix-blend-mode:lighten"/><polygon points="1196.502 882.281 1873.701 0 1862.114 0 1189.211 876.684 1196.502 882.281" fill="url(#g)" style="mix-blend-mode:lighten"/></g></svg>