<svg xmlns="http://www.w3.org/2000/svg" viewBox="0 0 327.12 85.88"><title>solClickW-web_barrios</title><g id="e4ee5b3e-8b8b-45a1-b71f-b8113f667b11" data-name="Layer 2"><g id="bf15acf0-367d-4ed8-b905-ea6aac8f672b" data-name="Capa 1"><path d="M42.94,0A42.94,42.94,0,1,0,85.88,42.94,42.95,42.95,0,0,0,42.94,0ZM70.52,60a3.62,3.62,0,0,1-.94,2.45c-8.32,9.27-17.16,14-26.29,14q-.6,0-1.2,0C27.5,75.76,18,63.27,17.59,62.74a3.66,3.66,0,0,1,5.86-4.4c.08.1,7.91,10.29,19,10.76,6.92.29,13.89-3.24,20.72-10.49V40.18h-29a3.66,3.66,0,0,1,0-7.32H66.85a3.66,3.66,0,0,1,3.67,3.66Zm-.15-29.84a1,1,0,0,1-.75.32,1,1,0,0,1-.24,0L56.19,27.36a1,1,0,0,1-.76-.71,1,1,0,0,1,.24-1L58,23.13c-12.12-9.65-24-8.41-35.45,3.66V45.21h29a3.67,3.67,0,0,1,0,7.33H18.88a3.66,3.66,0,0,1-3.67-3.66V25.36a3.67,3.67,0,0,1,.95-2.45C24.48,13.64,33.5,9.12,42.94,9.46c6.62.25,13.4,3,19.62,7.94a2.93,2.93,0,0,1,.41.38l2.29-2.46a1,1,0,0,1,1.78.45L70.63,29.2A1,1,0,0,1,70.37,30.19Z" fill="#fff"/><path d="M104.34,64.52a10.41,10.41,0,0,1-5-1.14,7.9,7.9,0,0,1-3.25-3.23,10.2,10.2,0,0,1-1.15-4.95A10.38,10.38,0,0,1,96,50.26,8.41,8.41,0,0,1,99.16,47a8.72,8.72,0,0,1,4.55-1.19,8.46,8.46,0,0,1,3.29.61,7,7,0,0,1,2.5,1.77,7.66,7.66,0,0,1,1.58,2.8,12,12,0,0,1,.54,3.73,1.14,1.14,0,0,1-.36.91,1.47,1.47,0,0,1-1,.31H97.55V53.75h11.84l-.63.52a8.23,8.23,0,0,0-.58-3.28,4.37,4.37,0,0,0-1.67-2.06,5,5,0,0,0-2.73-.71,5.37,5.37,0,0,0-3,.84,5.3,5.3,0,0,0-1.93,2.33,8.44,8.44,0,0,0-.67,3.48v.22a7.14,7.14,0,0,0,1.6,5,6,6,0,0,0,4.6,1.7,10.33,10.33,0,0,0,2.43-.29,7.35,7.35,0,0,0,2.4-1.08,1.91,1.91,0,0,1,1-.32,1.17,1.17,0,0,1,1.13,1,1.49,1.49,0,0,1-.11.84,1.78,1.78,0,0,1-.71.77,9.38,9.38,0,0,1-2.91,1.32A12.27,12.27,0,0,1,104.34,64.52Z" fill="#fff"/><path d="M117.48,64.44a1.66,1.66,0,0,1-1.22-.44,1.75,1.75,0,0,1-.45-1.3V47.55a1.53,1.53,0,0,1,1.67-1.71,1.67,1.67,0,0,1,1.21.43,1.76,1.76,0,0,1,.42,1.28V50.6l-.4-.56a6,6,0,0,1,2.54-3.19,7.55,7.55,0,0,1,4-1.08,7.38,7.38,0,0,1,3.6.78A4.84,4.84,0,0,1,131,48.93a10,10,0,0,1,.71,4V62.7a1.79,1.79,0,0,1-.43,1.3,1.66,1.66,0,0,1-1.24.44,1.71,1.71,0,0,1-1.26-.44,1.75,1.75,0,0,1-.45-1.3V53.16a5.46,5.46,0,0,0-.93-3.53,3.66,3.66,0,0,0-3-1.11,5.09,5.09,0,0,0-3.8,1.46,5.45,5.45,0,0,0-1.43,4V62.7A1.52,1.52,0,0,1,117.48,64.44Z" fill="#fff"/><path d="M153.19,64.52a7.44,7.44,0,0,1-3.65-.82,5,5,0,0,1-2.18-2.41,10,10,0,0,1-.7-4V47.55a1.72,1.72,0,0,1,.43-1.28,1.68,1.68,0,0,1,1.24-.43,1.78,1.78,0,0,1,1.26.43,1.69,1.69,0,0,1,.45,1.28v9.73a5.22,5.22,0,0,0,.92,3.39,3.65,3.65,0,0,0,2.94,1.1,4.75,4.75,0,0,0,3.62-1.49,5.55,5.55,0,0,0,1.39-3.93v-8.8a1.72,1.72,0,0,1,.43-1.28,1.68,1.68,0,0,1,1.24-.43,1.78,1.78,0,0,1,1.26.43,1.69,1.69,0,0,1,.45,1.28V62.7c0,1.16-.55,1.74-1.64,1.74a1.66,1.66,0,0,1-1.24-.44,1.79,1.79,0,0,1-.43-1.3V59.47l.49.63a6.37,6.37,0,0,1-2.4,3.28A6.65,6.65,0,0,1,153.19,64.52Z" fill="#fff"/><path d="M169.38,64.44a1.7,1.7,0,0,1-1.23-.44,1.75,1.75,0,0,1-.44-1.3V47.55a1.69,1.69,0,0,1,.44-1.28,1.74,1.74,0,0,1,1.23-.43,1.63,1.63,0,0,1,1.2.43,1.72,1.72,0,0,1,.43,1.28V50.6L170.6,50a6.08,6.08,0,0,1,2.54-3.19,7.57,7.57,0,0,1,4-1.08,7.38,7.38,0,0,1,3.6.78,4.86,4.86,0,0,1,2.12,2.38,10,10,0,0,1,.7,4V62.7a1.83,1.83,0,0,1-.42,1.3,1.68,1.68,0,0,1-1.25.44,1.54,1.54,0,0,1-1.7-1.74V53.16a5.46,5.46,0,0,0-.93-3.53,3.66,3.66,0,0,0-3-1.11A5.11,5.11,0,0,0,172.51,50a5.45,5.45,0,0,0-1.43,4V62.7A1.52,1.52,0,0,1,169.38,64.44Z" fill="#fff"/><path d="M105.1,36.16a24.39,24.39,0,0,1-3-.2,20.27,20.27,0,0,1-3-.59,16.13,16.13,0,0,1-2.53-.94,2.89,2.89,0,0,1-1.37-1.24,2.75,2.75,0,0,1-.28-1.64A3.12,3.12,0,0,1,95.55,30a2.49,2.49,0,0,1,1.33-.9,2.8,2.8,0,0,1,1.88.24,13.83,13.83,0,0,0,3.09,1,16.07,16.07,0,0,0,3.25.36,6.41,6.41,0,0,0,3.33-.63,1.85,1.85,0,0,0,1-1.57,1.6,1.6,0,0,0-.67-1.33,6.27,6.27,0,0,0-2.36-.87l-4.22-.9A9.57,9.57,0,0,1,97,22.9a6.51,6.51,0,0,1-1.69-4.65,7.4,7.4,0,0,1,.77-3.41,7.54,7.54,0,0,1,2.2-2.61,10.75,10.75,0,0,1,3.39-1.68A15.25,15.25,0,0,1,106,10a18.57,18.57,0,0,1,3.81.41,11.37,11.37,0,0,1,3.33,1.25,2.59,2.59,0,0,1,1.19,1.19,2.92,2.92,0,0,1,.29,1.56,2.66,2.66,0,0,1-.56,1.43,2.27,2.27,0,0,1-1.3.81,3.16,3.16,0,0,1-1.93-.27,9.76,9.76,0,0,0-2.36-.7A14.06,14.06,0,0,0,106,15.4a7.2,7.2,0,0,0-2.27.31,3,3,0,0,0-1.42.88,2,2,0,0,0-.49,1.33,1.59,1.59,0,0,0,.63,1.28,5.69,5.69,0,0,0,2.33.89l4.18.9a10.28,10.28,0,0,1,5.22,2.48A6.09,6.09,0,0,1,115.87,28a7.54,7.54,0,0,1-.75,3.39A7.32,7.32,0,0,1,113,33.94a10.14,10.14,0,0,1-3.38,1.64A15.83,15.83,0,0,1,105.1,36.16Z" fill="#fff"/><path d="M130.36,36.16a13.67,13.67,0,0,1-6.78-1.64,11.37,11.37,0,0,1-4.52-4.6A14.16,14.16,0,0,1,117.45,23a15.05,15.05,0,0,1,.92-5.37A11.82,11.82,0,0,1,121,13.53a11.51,11.51,0,0,1,4.09-2.65,14.58,14.58,0,0,1,5.27-.92,13.59,13.59,0,0,1,6.75,1.62,11.49,11.49,0,0,1,4.53,4.56,14.08,14.08,0,0,1,1.62,6.9,15.05,15.05,0,0,1-.92,5.37,11.85,11.85,0,0,1-2.63,4.16,11.34,11.34,0,0,1-4.09,2.67A14.56,14.56,0,0,1,130.36,36.16Zm0-5.55a5.66,5.66,0,0,0,3.24-.9,5.74,5.74,0,0,0,2.05-2.6,10.33,10.33,0,0,0,.72-4.07,8.65,8.65,0,0,0-1.58-5.55,5.37,5.37,0,0,0-4.43-2,5.76,5.76,0,0,0-3.23.88A5.59,5.59,0,0,0,125.06,19a10.36,10.36,0,0,0-.72,4.09,8.79,8.79,0,0,0,1.58,5.57A5.36,5.36,0,0,0,130.36,30.61Z" fill="#fff"/><path d="M150.54,35.76a3.06,3.06,0,0,1-3.35-3.35V13.67a3.33,3.33,0,0,1,.86-2.48,3.91,3.91,0,0,1,4.92,0,3.4,3.4,0,0,1,.85,2.48V30.25h8.79a3,3,0,0,1,2.11.7,2.7,2.7,0,0,1,.74,2,2.74,2.74,0,0,1-.74,2,2.92,2.92,0,0,1-2.11.72Z" fill="#fff"/><path d="M177.45,36.16a15.58,15.58,0,0,1-4.9-.7A9.2,9.2,0,0,1,169,33.35a8.76,8.76,0,0,1-2.2-3.52A14.77,14.77,0,0,1,166,25V13.38a3.37,3.37,0,0,1,.86-2.5,3.35,3.35,0,0,1,2.45-.85,3.31,3.31,0,0,1,2.47.85,3.37,3.37,0,0,1,.85,2.5V25a6.17,6.17,0,0,0,1.23,4.18,5.17,5.17,0,0,0,7.1,0A6.23,6.23,0,0,0,182.21,25V13.38a3.37,3.37,0,0,1,.85-2.5,3.25,3.25,0,0,1,2.43-.85,3.19,3.19,0,0,1,2.41.85,3.4,3.4,0,0,1,.83,2.5V25a13.49,13.49,0,0,1-1.28,6.22,8.27,8.27,0,0,1-3.8,3.75A14.06,14.06,0,0,1,177.45,36.16Z" fill="#fff"/><path d="M205,36.16a15.15,15.15,0,0,1-7.24-1.62A11.11,11.11,0,0,1,193.11,30,14.29,14.29,0,0,1,191.5,23a15.05,15.05,0,0,1,.92-5.37,11.37,11.37,0,0,1,6.92-6.79A16.35,16.35,0,0,1,205,10a16.69,16.69,0,0,1,3.44.38,11.55,11.55,0,0,1,3.16,1.13,3.1,3.1,0,0,1,1.4,1.37,2.82,2.82,0,0,1,.27,1.7,3.36,3.36,0,0,1-.63,1.55,2.47,2.47,0,0,1-1.3.92,2.35,2.35,0,0,1-1.72-.24,12.1,12.1,0,0,0-2.15-.77,9,9,0,0,0-2.22-.27,7.54,7.54,0,0,0-3.73.84A5.46,5.46,0,0,0,199.25,19a9.52,9.52,0,0,0-.75,4,9.62,9.62,0,0,0,.75,4,5.46,5.46,0,0,0,2.25,2.49,7.54,7.54,0,0,0,3.73.84,9.27,9.27,0,0,0,2-.23,9.63,9.63,0,0,0,2.13-.74,3,3,0,0,1,1.93-.25,2.51,2.51,0,0,1,1.37.86,3.24,3.24,0,0,1,.66,1.5,2.79,2.79,0,0,1-.23,1.67,2.85,2.85,0,0,1-1.32,1.34,11,11,0,0,1-3.11,1.19A16.17,16.17,0,0,1,205,36.16Z" fill="#fff"/><path d="M220.77,36.09a3.26,3.26,0,0,1-2.45-.89,3.39,3.39,0,0,1-.87-2.5V13.42a3.38,3.38,0,0,1,.87-2.52,3.91,3.91,0,0,1,4.92,0,3.45,3.45,0,0,1,.84,2.52V32.7a3.46,3.46,0,0,1-.83,2.5A3.24,3.24,0,0,1,220.77,36.09Z" fill="#fff"/><path d="M240.05,36.16a13.6,13.6,0,0,1-6.77-1.64,11.34,11.34,0,0,1-4.53-4.6,14.16,14.16,0,0,1-1.6-6.88,15.05,15.05,0,0,1,.92-5.37,11.68,11.68,0,0,1,2.63-4.14,11.34,11.34,0,0,1,4.09-2.65,14.56,14.56,0,0,1,5.26-.92,13.66,13.66,0,0,1,6.76,1.62,11.46,11.46,0,0,1,4.52,4.56A14.08,14.08,0,0,1,253,23a14.84,14.84,0,0,1-.92,5.37,11.85,11.85,0,0,1-2.63,4.16,11.26,11.26,0,0,1-4.09,2.67A14.52,14.52,0,0,1,240.05,36.16Zm0-5.55a5.64,5.64,0,0,0,3.24-.9,5.75,5.75,0,0,0,2.06-2.6,10.33,10.33,0,0,0,.72-4.07,8.65,8.65,0,0,0-1.59-5.55,5.34,5.34,0,0,0-4.43-2,5.73,5.73,0,0,0-3.22.88A5.55,5.55,0,0,0,234.75,19,10.36,10.36,0,0,0,234,23a8.73,8.73,0,0,0,1.59,5.57A5.34,5.34,0,0,0,240.05,30.61Z" fill="#fff"/><path d="M259.86,36.09A2.79,2.79,0,0,1,256.77,33V13.31a3.4,3.4,0,0,1,.79-2.43,2.71,2.71,0,0,1,2.09-.85,3.28,3.28,0,0,1,1.8.43,6.76,6.76,0,0,1,1.44,1.45l11.43,14.27h-1v-13a3.16,3.16,0,0,1,.77-2.31,3.71,3.71,0,0,1,4.58,0,3.2,3.2,0,0,1,.77,2.31v20a3.17,3.17,0,0,1-.72,2.18,2.47,2.47,0,0,1-1.94.81,3.56,3.56,0,0,1-1.93-.45,6.72,6.72,0,0,1-1.5-1.43l-11.42-14.3h1V33a3.18,3.18,0,0,1-.78,2.34A3.05,3.05,0,0,1,259.86,36.09Z" fill="#fff"/><path d="M288.36,35.76a3.48,3.48,0,0,1-2.57-.88,3.44,3.44,0,0,1-.88-2.54V13.78a3.44,3.44,0,0,1,.88-2.54,3.48,3.48,0,0,1,2.57-.88h12.22a2.61,2.61,0,0,1,1.95.65,2.53,2.53,0,0,1,.65,1.87,2.68,2.68,0,0,1-.65,1.93,2.61,2.61,0,0,1-1.95.66h-9.33V20.3h8.54a2.68,2.68,0,0,1,1.93.65,2.56,2.56,0,0,1,.66,1.91,2.56,2.56,0,0,1-.66,1.91,2.68,2.68,0,0,1-1.93.65h-8.54v5.23h9.33a2.3,2.3,0,0,1,2.6,2.55,2.58,2.58,0,0,1-.65,1.91,2.61,2.61,0,0,1-1.95.65Z" fill="#fff"/><path d="M316.35,36.16a24.39,24.39,0,0,1-3-.2,20.68,20.68,0,0,1-3-.59,16.38,16.38,0,0,1-2.52-.94,2.89,2.89,0,0,1-1.37-1.24,2.83,2.83,0,0,1-.29-1.64A3.22,3.22,0,0,1,306.8,30a2.49,2.49,0,0,1,1.33-.9,2.77,2.77,0,0,1,1.87.24,14.09,14.09,0,0,0,3.1,1,16.07,16.07,0,0,0,3.25.36,6.41,6.41,0,0,0,3.33-.63,1.85,1.85,0,0,0,1-1.57,1.6,1.6,0,0,0-.67-1.33,6.27,6.27,0,0,0-2.36-.87l-4.22-.9a9.57,9.57,0,0,1-5.15-2.52,6.51,6.51,0,0,1-1.7-4.65,7.41,7.41,0,0,1,.78-3.41,7.54,7.54,0,0,1,2.2-2.61,10.75,10.75,0,0,1,3.39-1.68,15.2,15.2,0,0,1,4.37-.59,18.57,18.57,0,0,1,3.81.41,11.37,11.37,0,0,1,3.33,1.25,2.59,2.59,0,0,1,1.19,1.19,3,3,0,0,1,.29,1.56,2.66,2.66,0,0,1-.56,1.43,2.31,2.31,0,0,1-1.3.81,3.16,3.16,0,0,1-1.93-.27,9.76,9.76,0,0,0-2.36-.7,14.06,14.06,0,0,0-2.54-.24,7.2,7.2,0,0,0-2.27.31,3,3,0,0,0-1.42.88,2,2,0,0,0-.49,1.33,1.59,1.59,0,0,0,.63,1.28,5.69,5.69,0,0,0,2.33.89l4.18.9a10.28,10.28,0,0,1,5.22,2.48A6.09,6.09,0,0,1,327.12,28a7.54,7.54,0,0,1-.75,3.39,7.32,7.32,0,0,1-2.17,2.57,10.14,10.14,0,0,1-3.38,1.64A15.88,15.88,0,0,1,316.35,36.16Z" fill="#fff"/><path d="M213,75.92a18.8,18.8,0,0,1-9-2,13.73,13.73,0,0,1-5.77-5.7,17.71,17.71,0,0,1-2-8.62,18.78,18.78,0,0,1,1.14-6.69A14.18,14.18,0,0,1,206,44.43a20.4,20.4,0,0,1,7-1.15,20.93,20.93,0,0,1,4.29.47,14.35,14.35,0,0,1,3.93,1.42A3.91,3.91,0,0,1,223,46.88a3.53,3.53,0,0,1,.33,2.11,4.2,4.2,0,0,1-.78,1.93,3,3,0,0,1-1.62,1.14,2.85,2.85,0,0,1-2.15-.29,15.69,15.69,0,0,0-2.67-1,11.48,11.48,0,0,0-2.77-.33,9.34,9.34,0,0,0-4.64,1.05,6.68,6.68,0,0,0-2.81,3.08,11.71,11.71,0,0,0-.94,5,11.88,11.88,0,0,0,.94,5,6.68,6.68,0,0,0,2.81,3.1,9.34,9.34,0,0,0,4.64,1,12.27,12.27,0,0,0,2.52-.29,12.09,12.09,0,0,0,2.65-.92,3.7,3.7,0,0,1,2.4-.32,3.16,3.16,0,0,1,1.71,1.08,4,4,0,0,1,.83,1.87,3.45,3.45,0,0,1-.3,2.08,3.53,3.53,0,0,1-1.63,1.66,13.56,13.56,0,0,1-3.89,1.49A20.69,20.69,0,0,1,213,75.92Z" fill="#fff"/><path d="M232.09,75.43a3.82,3.82,0,0,1-4.17-4.17V47.91a4.19,4.19,0,0,1,1.07-3.1,4.89,4.89,0,0,1,6.13,0,4.27,4.27,0,0,1,1.06,3.1V68.56h10.95a3.65,3.65,0,0,1,2.63.88,3.34,3.34,0,0,1,.92,2.53,3.43,3.43,0,0,1-.92,2.56,3.62,3.62,0,0,1-2.63.9Z" fill="#fff"/><path d="M258.31,75.83a4,4,0,0,1-3.05-1.1,4.26,4.26,0,0,1-1.08-3.12v-24a4.26,4.26,0,0,1,1.08-3.14,4.89,4.89,0,0,1,6.13,0,4.33,4.33,0,0,1,1.05,3.14v24a4.37,4.37,0,0,1-1,3.12A4,4,0,0,1,258.31,75.83Z" fill="#fff"/><path d="M284.17,75.92a18.8,18.8,0,0,1-9-2,13.73,13.73,0,0,1-5.77-5.7,17.82,17.82,0,0,1-2-8.62,18.57,18.57,0,0,1,1.15-6.69,14.11,14.11,0,0,1,8.62-8.46,20.35,20.35,0,0,1,7-1.15,20.93,20.93,0,0,1,4.29.47,14.35,14.35,0,0,1,3.93,1.42,3.86,3.86,0,0,1,1.75,1.71,3.61,3.61,0,0,1,.34,2.11,4.33,4.33,0,0,1-.79,1.93,3,3,0,0,1-1.61,1.14,2.88,2.88,0,0,1-2.16-.29,15.69,15.69,0,0,0-2.67-1,11.4,11.4,0,0,0-2.76-.33,9.35,9.35,0,0,0-4.65,1.05A6.73,6.73,0,0,0,277,54.6a11.86,11.86,0,0,0-.94,5,12,12,0,0,0,.94,5,6.73,6.73,0,0,0,2.81,3.1,9.35,9.35,0,0,0,4.65,1,12.25,12.25,0,0,0,2.51-.29,12.09,12.09,0,0,0,2.65-.92,3.7,3.7,0,0,1,2.4-.32,3.12,3.12,0,0,1,1.71,1.08,4,4,0,0,1,.83,1.87,3.52,3.52,0,0,1-.29,2.08,3.56,3.56,0,0,1-1.64,1.66,13.44,13.44,0,0,1-3.89,1.49A20.69,20.69,0,0,1,284.17,75.92Z" fill="#fff"/><path d="M303.21,75.83a4,4,0,0,1-3-1.1,4.18,4.18,0,0,1-1.08-3.07V47.55a4.14,4.14,0,1,1,8.26,0v9.79h.09l10.91-12a7.2,7.2,0,0,1,1.82-1.41,4.59,4.59,0,0,1,2.18-.52,3.41,3.41,0,0,1,2.71,1,3.06,3.06,0,0,1,.77,2.24,3.75,3.75,0,0,1-1.06,2.36L313.89,60.48V57.11L325.3,70a4,4,0,0,1,1.17,2.67,3.06,3.06,0,0,1-.92,2.27,3.75,3.75,0,0,1-2.72.89,4.44,4.44,0,0,1-2.45-.6,10.93,10.93,0,0,1-2-1.82L307.43,61.15h-.09V71.66a4.29,4.29,0,0,1-1,3.07A4,4,0,0,1,303.21,75.83Z" fill="#fff"/></g></g></svg>