<?xml version="1.0" encoding="UTF-8"?>
<svg width="80px" height="80px" viewBox="0 0 80 80" version="1.1" xmlns="http://www.w3.org/2000/svg">
    <title>Logo Centro de Proyectos y Gestión</title>
    <g stroke="none" stroke-width="1" fill="none" fill-rule="evenodd">
        <path d="M40,0 C62.0914,0 80,17.9086 80,40 C80,62.0914 62.0914,80 40,80 C17.9086,80 0,62.0914 0,40 C0,17.9086 17.9086,0 40,0 Z" fill="#FFFFFF"></path>
        <path d="M55,30 C63.2843,30 70,36.7157 70,45 C70,53.2843 63.2843,60 55,60 C46.7157,60 40,53.2843 40,45 C40,36.7157 46.7157,30 55,30 Z" fill="#667246"></path>
        <path d="M25,20 C33.2843,20 40,26.7157 40,35 C40,43.2843 33.2843,50 25,50 C16.7157,50 10,43.2843 10,35 C10,26.7157 16.7157,20 25,20 Z" fill="#667246"></path>
        <path d="M40,40 C48.2843,40 55,46.7157 55,55 C55,63.2843 48.2843,70 40,70 C31.7157,70 25,63.2843 25,55 C25,46.7157 31.7157,40 40,40 Z" fill="#667246"></path>
    </g>
</svg>
