<svg xmlns="http://www.w3.org/2000/svg" viewBox="0 0 145.03 122.55"><title>florW-web_barrios</title><g id="a0ff8766-111c-4d77-af8d-0b5ba2d392d7" data-name="Layer 2"><g id="fe6e5489-6009-4019-a70e-7fe5b7dfefd0" data-name="Capa 1"><path d="M32.77,78.7l-1-1.44c-.9-1.36-1.72-2.71-2.5-4.13L29.18,73c-.19-.36-.82-1.62-1.61-3.61-.19-.46-.39-1-.6-1.54s-.37-1-.56-1.57c-.75-2.15-1.44-4.48-2-6.93l-.62-2.64c-.11-.51-.21-1-.31-1.5a109.91,109.91,0,0,1-2.07-18.56v-.46c-1.67.31-3.65.55-5.83,1l-3.25.58a59.49,59.49,0,0,0-6.52,1.48,13.28,13.28,0,0,0-2.22.85,5.08,5.08,0,0,0-2,1.94c-.26.41-.38,1.33-.09,3.3S2,49.27,5.13,55C8.38,61.7,14.6,68.85,16.3,71c5.81,5.91,12.09,10,21.3,13.37a43.64,43.64,0,0,1-3.71-4.15C33.52,79.72,33.14,79.21,32.77,78.7Z" fill="#fff"/><path d="M39.77,62.5c0-.62-.07-1.22-.1-1.86,0-1.73,0-3.39.08-5.09l0-.12c0-.47.17-1.92.57-4.17.09-.51.19-1.09.32-1.71s.23-1.11.36-1.7c.53-2.34,1.2-4.81,2-7.34l.91-2.7c.19-.52.36-1,.54-1.51A116.22,116.22,0,0,1,51.8,20.4l-.13,0c-2.07-.88-5.25-2.05-9.46-3.49l-2.5-.94C37,14.87,35,14.12,33,13.56A8,8,0,0,0,31,13.11a5,5,0,0,0-2.67.52,5,5,0,0,0-1.94,2.87,57.86,57.86,0,0,0-1.11,12.67c0,.28.17,4.66.18,5.77v1.34c0,.38,0,.73,0,1.08v.33a104.47,104.47,0,0,0,1.94,17.49c.1.47.19.93.29,1.38l.59,2.51c.56,2.26,1.2,4.43,1.89,6.42.18.53.36,1,.53,1.47s.36,1,.53,1.39c.72,1.8,1.26,2.89,1.46,3.27h0c.72,1.3,1.46,2.52,2.27,3.74.3.44.6.88.91,1.31s.66.9,1,1.33a33.27,33.27,0,0,0,10.83,9.28c.73.16,1.46.32,2.2.45-5-5.35-9-12.83-10-23.28C39.86,63.82,39.81,63.16,39.77,62.5Z" fill="#fff"/><path d="M59.13,53.64c.24-.55.49-1.1.76-1.66s.49-1,.75-1.54c.74-1.41,1.51-2.75,2.36-4.09.24-.34,1-1.49,2.42-3.21.31-.37.65-.79,1-1.23l1.08-1.21c1.49-1.65,3.16-3.34,5-5l2-1.77,1.13-1A106.59,106.59,0,0,1,90.49,22.48l.31-.18-.08-.12c-.21-.34-.43-.67-.65-1s-.45-.67-.68-1l-.24-.37c-1.35-2-3.53-4.94-6.48-8.71L81,8.8c-1.85-2.55-3.18-4.4-4.65-6.08A12.87,12.87,0,0,0,74.58,1a4.07,4.07,0,0,0-2.53-1h0a5.44,5.44,0,0,0-3.37,1.52,71.34,71.34,0,0,0-7.87,11.13c-.14.24-.27.5-.41.76l-.32.56c-1.08,1.55-1.94,2.86-2.57,3.9l-.14.22-.6,1c-.2.34-.38.66-.55,1l-.2.35A112.39,112.39,0,0,0,48,37.58L47.44,39l-.89,2.64c-.76,2.4-1.41,4.76-1.91,7-.13.58-.25,1.13-.35,1.64s-.22,1.11-.3,1.61a38.82,38.82,0,0,0-.53,3.85c-.09,1.6-.11,3.16-.08,4.77,0,.58.06,1.16.09,1.74s.08,1.22.14,1.82c1.18,12,6.67,19.67,12.84,24.6q3.11.3,6.24.34C57.12,81,52.6,68.83,59.13,53.64Z" fill="#fff"/><path d="M118.33,27.7c-.42-3-.69-5-1.17-7l-.27-1.4a4.19,4.19,0,0,0-2.06-2.85,4.42,4.42,0,0,0-3.46-.17,66.82,66.82,0,0,0-11.5,5.37c-.21.11-.43.25-.65.39l-.57.34c-1.63.77-2.9,1.41-3.88,2l-.4.21L93.6,25l-.82.47-.4.24A103,103,0,0,0,78,35.79l-1.08.92L75,38.43c-1.7,1.58-3.3,3.19-4.72,4.76l-1,1.16-1,1.15a34.22,34.22,0,0,0-2.15,2.86c-.79,1.23-1.51,2.47-2.19,3.79-.25.47-.48,1-.71,1.44s-.47,1-.69,1.51c-6.44,15-.89,26.76,4.73,33.9,1.08,0,2.15-.11,3.23-.2a29.12,29.12,0,0,1-1.25-3.22l0-.12c-2.28-9-3.68-25.81,12.64-37.91l1.4-1,.12-.09,1.23-.81c1.25-.79,2.5-1.51,3.85-2.21l.11-.05c.36-.18,1.51-.72,3.38-1.42l1.43-.51L94.82,41c2-.64,4.16-1.22,6.4-1.72l2.45-.51,1.38-.25a99.48,99.48,0,0,1,14.67-1.45h.07c-.27-1.87-.64-4.13-1.1-6.76Z" fill="#fff"/><path d="M97.16,82.35c.62-.25,1.25-.55,1.89-.86a15.09,15.09,0,0,1,5.75-1.86,5.64,5.64,0,0,1,1.9.28A9.63,9.63,0,0,1,110.28,82c7.34-4.87,12.54-11.67,16.74-17.18s7.26-9.7,11-9.8a5.68,5.68,0,0,1,2.32.45,8.1,8.1,0,0,1,1.1.79l.71-1.75c1.1-2.66,1.82-4.42,2.39-6.29a8.82,8.82,0,0,0,.48-1.76,6,6,0,0,0-.43-2.59A4.09,4.09,0,0,0,142,42,63.11,63.11,0,0,0,130.14,41s-4.37-.19-5.41-.22h-.15l-1.11,0h-1.33l-2.33,0a95,95,0,0,0-14.12,1.39l-1.3.24-2.38.49c-2.11.48-4.16,1-6.06,1.63L94.56,45c-.47.16-.92.32-1.32.48a31.69,31.69,0,0,0-3.09,1.29c-1.24.65-2.41,1.32-3.56,2l-1.15.76-.1.07c-.43.3-.86.6-1.28.91-14.55,10.79-13.32,25.88-11.27,34a25.8,25.8,0,0,0,1.65,3.91A90.48,90.48,0,0,0,97.16,82.35Z" fill="#fff"/><path d="M139.79,58.32c-6.68-3-10.46,15.58-27.25,26,2.4,5.41,1.46,9.67-8.25,15.29a73.92,73.92,0,0,1-14.88,6.41c-2.92.83-4.74,1.49-5.22.49s-.76-2,3-3.11A93.78,93.78,0,0,0,103,96.71c5.36-3.06,7.07-5.07,6.89-8.94a5.3,5.3,0,0,0-3.72-4.48c-2.35-.85-5.93,1.37-8.7,2.5-12.85,5.28-35.41,11.43-60.69,2.09C21.08,82.08,13.74,74.56,3.2,59.4c-2-2.79-3.68-1.26-3.08,1.75C6,88.1,27.62,117.75,61,121.89c42.84,5.31,65.12-22.75,71.85-34.23s14.9-25.72,6.91-29.34" fill="#fff"/></g></g></svg>